<?xml version="1.0"?>
<svg xmlns="http://www.w3.org/2000/svg" xmlns:xlink="http://www.w3.org/1999/xlink" id="Capa_1" style="enable-background:new 0 0 53 53;" viewBox="0 0 53 53" x="0px" y="0px" width="512px" height="512px" xml:space="preserve" version="1.1"><g><g>
	<g>
		<path class="active-path" d="M 2 13.5 h 49 c 1.104 0 2 -0.896 2 -2 s -0.896 -2 -2 -2 H 2 c -1.104 0 -2 0.896 -2 2 S 0.896 13.5 2 13.5 Z" data-original="#000000" data-old_color="#000000" fill="#FFFFFF"/>
		<path class="active-path" d="M 2 28.5 h 49 c 1.104 0 2 -0.896 2 -2 s -0.896 -2 -2 -2 H 2 c -1.104 0 -2 0.896 -2 2 S 0.896 28.5 2 28.5 Z" data-original="#000000" data-old_color="#000000" fill="#FFFFFF"/>
		<path class="active-path" d="M 2 43.5 h 49 c 1.104 0 2 -0.896 2 -2 s -0.896 -2 -2 -2 H 2 c -1.104 0 -2 0.896 -2 2 S 0.896 43.5 2 43.5 Z" data-original="#000000" data-old_color="#000000" fill="#FFFFFF"/>
	</g>
</g></g> </svg>
